<svg xmlns="http://www.w3.org/2000/svg" viewBox="-10 -10 52 52">
  <!-- Uygulama ikonu (maskable / apple-touch): tam dolu mercan zemin, beyaz belge, koyu mercan monogram.
       İşaret güvenli bölgede (merkezden %40 yarıçap) kalır. -->
  <rect x="-10" y="-10" width="52" height="52" fill="#E5484D"/>
  <path fill="#fff" d="M6.5 1.5H21L29 9.5V27a3.5 3.5 0 0 1-3.5 3.5h-19A3.5 3.5 0 0 1 3 27V5a3.5 3.5 0 0 1 3.5-3.5Z"/>
  <path fill="#E5484D" fill-opacity=".3" d="M21 1.5V7a2.5 2.5 0 0 0 2.5 2.5H29Z"/>
  <g fill="none" stroke="#C9373C" stroke-width="4" transform="translate(4.125 15) scale(.5)">
    <path d="M0 2H14M7 2V20"/>
    <path transform="translate(17.5 0)" d="M2 0V20M2 2H12M2 10H10"/>
    <path transform="translate(33 0)" d="M2 0V20M2 2H7.5A4 4 0 0 1 7.5 10H2M2 10H8.5A4 4 0 0 1 8.5 18H2"/>
  </g>
</svg>
